<?xml version="1.0" encoding="UTF-8" standalone="no"?>
<svg
   xmlns:dc="http://purl.org/dc/elements/1.1/"
   xmlns:cc="http://creativecommons.org/ns#"
   xmlns:rdf="http://www.w3.org/1999/02/22-rdf-syntax-ns#"
   xmlns:svg="http://www.w3.org/2000/svg"
   xmlns="http://www.w3.org/2000/svg"
   version="1.1"
   id="Layer_1"
   x="0px"
   y="0px"
   viewBox="0 0 339.99999 339.99999"
   xml:space="preserve"
   width="340"
   height="340"><metadata
   id="metadata51"><rdf:RDF><cc:Work
       rdf:about=""><dc:format>image/svg+xml</dc:format><dc:type
         rdf:resource="http://purl.org/dc/dcmitype/StillImage" /><dc:title></dc:title></cc:Work></rdf:RDF></metadata><defs
   id="defs49" />
<style
   type="text/css"
   id="style2">
	.st0{fill:none;stroke:#2BACE2;stroke-width:0.3528;stroke-miterlimit:10;}
	.st1{fill:none;stroke:#EC2227;stroke-width:0.3528;stroke-miterlimit:10;}
</style>


<path
   id="path3091-2-7-8-4-3-2-7"
   d="m 58.240695,58.574481 c -5.78041,5.95733 -5.64019,15.5853 0.3137,21.37058 L 148.63755,170.0281 58.554395,260.11106 c -6.07597,5.90547 -6.07446,15.78758 0,21.68995 v 0.008 c 6.25058,5.82811 16.39748,4.27646 21.38192,-0.32617 l 90.083155,-90.083 90.04271,90.0429 c 6.52989,6.1844 15.70507,5.92475 21.57959,0.19729 6.15458,-6.56754 5.34123,-16.06969 -0.20031,-21.57793 l -90.04309,-90.04263 90.04195,-90.041689 c 6.17575,-6.52543 5.91383,-15.7076 0.19654,-21.57362 -6.56655,-6.15375 -16.06791,-5.34459 -21.57506,0.19314 L 170.0206,148.63919 79.937445,58.556231 c -5.90589,-6.07692 -15.79238,-6.06959 -21.69411,0.0113 z"
   style="color:#000000;font-style:normal;font-variant:normal;font-weight:normal;font-stretch:normal;font-size:medium;line-height:normal;font-family:sans-serif;font-variant-ligatures:normal;font-variant-position:normal;font-variant-caps:normal;font-variant-numeric:normal;font-variant-alternates:normal;font-feature-settings:normal;text-indent:0;text-align:start;text-decoration:none;text-decoration-line:none;text-decoration-style:solid;text-decoration-color:#000000;letter-spacing:normal;word-spacing:normal;text-transform:none;writing-mode:lr-tb;direction:ltr;text-orientation:mixed;dominant-baseline:auto;baseline-shift:baseline;text-anchor:start;white-space:normal;shape-padding:0;clip-rule:nonzero;display:inline;overflow:visible;visibility:visible;opacity:1;isolation:auto;mix-blend-mode:normal;color-interpolation:sRGB;color-interpolation-filters:linearRGB;solid-color:#000000;solid-opacity:1;vector-effect:none;fill:#869098;fill-opacity:1;fill-rule:nonzero;stroke:none;stroke-width:30.23622131;stroke-linecap:round;stroke-linejoin:round;stroke-miterlimit:4;stroke-dasharray:none;stroke-dashoffset:0;stroke-opacity:1;paint-order:normal;color-rendering:auto;image-rendering:auto;shape-rendering:auto;text-rendering:auto;enable-background:accumulate" /></svg>