<?xml version="1.0" encoding="UTF-8" standalone="no"?>
<svg
   xmlns:dc="http://purl.org/dc/elements/1.1/"
   xmlns:cc="http://creativecommons.org/ns#"
   xmlns:rdf="http://www.w3.org/1999/02/22-rdf-syntax-ns#"
   xmlns:svg="http://www.w3.org/2000/svg"
   xmlns="http://www.w3.org/2000/svg"
   height="340"
   width="340"
   xml:space="preserve"
   viewBox="0 0 339.99999 339.99999"
   y="0px"
   x="0px"
   id="Layer_1"
   version="1.1"><metadata
   id="metadata51"><rdf:RDF><cc:Work
       rdf:about=""><dc:format>image/svg+xml</dc:format><dc:type
         rdf:resource="http://purl.org/dc/dcmitype/StillImage" /><dc:title></dc:title></cc:Work></rdf:RDF></metadata><defs
   id="defs49" />
<style
   id="style2"
   type="text/css">
	.st0{fill:none;stroke:#2BACE2;stroke-width:0.3528;stroke-miterlimit:10;}
	.st1{fill:none;stroke:#EC2227;stroke-width:0.3528;stroke-miterlimit:10;}
</style>


<path
   id="path2018-3-8"
   d="M 228.29672,67.061723 C 207.65105,46.416129 179.14509,33.627304 147.72928,33.660223 v 0.0038 c -0.26834,2.65e-4 -0.5348,0.02646 -0.79861,0.07861 0,0.0038 0,0.01134 0,0.01512 C 84.480773,34.269275 33.617403,85.320336 33.551263,147.87769 c -0.0718,62.83631 51.13474,114.03882 113.969007,113.96897 25.99408,-0.0378 49.88486,-9.02936 69.11509,-23.77617 l 63.87969,63.89023 c 5.84239,5.84107 15.43861,5.83585 21.28101,-0.004 l -0.0794,0.0782 c 0.0378,-0.0378 0.0756,-0.076 0.11338,-0.11489 5.84088,-5.8427 5.84088,-15.44353 0,-21.28619 L 237.9451,216.74971 c 14.74507,-19.22959 23.74224,-43.11481 23.77096,-69.10987 0.0378,-31.41819 -12.75099,-59.927104 -33.39628,-80.572736 z m -21.75685,21.703219 c 15.0119,15.010818 24.25209,35.799588 24.22526,58.874018 -0.0529,46.14497 -37.15389,83.24659 -83.29739,83.29731 -46.14387,0.0503 -83.145077,-36.94938 -83.093677,-83.09375 0.0529,-46.14519 37.151247,-83.237112 83.292097,-83.292066 v -0.0038 c 0,-0.0038 0,-0.0038 0.0378,0.01512 0,-0.0038 0,-0.01134 0,-0.01512 23.05058,-0.01134 43.81606,9.220347 58.81663,24.219629 z"
   style="color:#000000;font-style:normal;font-variant:normal;font-weight:normal;font-stretch:normal;font-size:medium;line-height:normal;font-family:sans-serif;font-variant-ligatures:normal;font-variant-position:normal;font-variant-caps:normal;font-variant-numeric:normal;font-variant-alternates:normal;font-feature-settings:normal;text-indent:0;text-align:start;text-decoration:none;text-decoration-line:none;text-decoration-style:solid;text-decoration-color:#000000;letter-spacing:normal;word-spacing:normal;text-transform:none;writing-mode:lr-tb;direction:ltr;text-orientation:mixed;dominant-baseline:auto;baseline-shift:baseline;text-anchor:start;white-space:normal;shape-padding:0;clip-rule:nonzero;display:inline;overflow:visible;visibility:visible;opacity:1;isolation:auto;mix-blend-mode:normal;color-interpolation:sRGB;color-interpolation-filters:linearRGB;solid-color:#000000;solid-opacity:1;vector-effect:none;fill:#869098;fill-opacity:1;fill-rule:nonzero;stroke:none;stroke-width:8.12598515;stroke-linecap:square;stroke-linejoin:round;stroke-miterlimit:4;stroke-dasharray:none;stroke-dashoffset:0;stroke-opacity:1;paint-order:normal;color-rendering:auto;image-rendering:auto;shape-rendering:auto;text-rendering:auto;enable-background:accumulate" /></svg>